<svg width="400" height="593" viewBox="0 0 400 593" fill="none" xmlns="http://www.w3.org/2000/svg">
                <g clip-path="url(#clip0_17_3)">
                    <mask id="mask0_17_3" style="mask-type:luminance" maskUnits="userSpaceOnUse" x="0" y="0" width="400" height="593">
                        <path d="M384 0H16C7.16344 0 0 7.16344 0 16V577C0 585.837 7.16344 593 16 593H384C392.837 593 400 585.837 400 577V16C400 7.16344 392.837 0 384 0Z" fill="white" />
                    </mask>
                    <g mask="url(#mask0_17_3)">
                        <path d="M0 0H400V593H0V0Z" fill="url(#paint0_linear_17_3)" />
                    </g>
                    <mask id="mask1_17_3" style="mask-type:luminance" maskUnits="userSpaceOnUse" x="0" y="0" width="400" height="593">
                        <path d="M384 0H16C7.16344 0 0 7.16344 0 16V577C0 585.837 7.16344 593 16 593H384C392.837 593 400 585.837 400 577V16C400 7.16344 392.837 0 384 0Z" fill="white" />
                    </mask>
                    <g mask="url(#mask1_17_3)">
                        <g filter="url(#filter0_d_17_3)">
                            <path d="M-192 237C-192 222.64 -180.36 211 -166 211H215C229.36 211 241 222.64 241 237V474C241 488.36 229.36 500 215 500H-166C-180.36 500 -192 488.36 -192 474V237Z" fill="black" />
                        </g>
                        <path d="M-192 237C-192 222.64 -180.36 211 -166 211H215C229.36 211 241 222.64 241 237V474C241 488.36 229.36 500 215 500H-166C-180.36 500 -192 488.36 -192 474V237Z" fill="#242742" />
                        <g filter="url(#filter1_d_17_3)">
                            <path d="M-176 237C-176 230.925 -171.075 226 -165 226H214C220.075 226 225 230.925 225 237V474C225 480.075 220.075 485 214 485H-165C-171.075 485 -176 480.075 -176 474V237Z" fill="black" />
                        </g>
                        <path d="M-176 237C-176 230.925 -171.075 226 -165 226H214C220.075 226 225 230.925 225 237V474C225 480.075 220.075 485 214 485H-165C-171.075 485 -176 480.075 -176 474V237Z" fill="url(#paint1_linear_17_3)" />
                        <g filter="url(#filter2_d_17_3)">
                            <path d="M-176 237C-176 230.925 -171.075 226 -165 226H214C220.075 226 225 230.925 225 237V474C225 480.075 220.075 485 214 485H-165C-171.075 485 -176 480.075 -176 474V237Z" fill="black" />
                        </g>
                        <path d="M-176 237C-176 230.925 -171.075 226 -165 226H214C220.075 226 225 230.925 225 237V474C225 480.075 220.075 485 214 485H-165C-171.075 485 -176 480.075 -176 474V237Z" fill="url(#paint2_linear_17_3)" />
                        <mask id="mask2_17_3" style="mask-type:luminance" maskUnits="userSpaceOnUse" x="-176" y="226" width="401" height="259">
                            <path d="M-176 237C-176 230.925 -171.075 226 -165 226H214C220.075 226 225 230.925 225 237V474C225 480.075 220.075 485 214 485H-165C-171.075 485 -176 480.075 -176 474V237Z" fill="white" />
                        </mask>
                        <g mask="url(#mask2_17_3)">
                            <path d="M214 628C301.261 628 372 557.261 372 470C372 382.739 301.261 312 214 312C126.739 312 56 382.739 56 470C56 557.261 126.739 628 214 628Z" fill="url(#paint3_linear_17_3)" />
                        </g>
                        <mask id="mask3_17_3" style="mask-type:luminance" maskUnits="userSpaceOnUse" x="-176" y="226" width="401" height="259">
                            <path d="M-176 237C-176 230.925 -171.075 226 -165 226H214C220.075 226 225 230.925 225 237V474C225 480.075 220.075 485 214 485H-165C-171.075 485 -176 480.075 -176 474V237Z" fill="white" />
                        </mask>
                        <g mask="url(#mask3_17_3)">
                            <path d="M72.1689 79.7231C10.4661 18.0203 -89.574 18.0203 -151.277 79.7231C-212.98 141.426 -212.98 241.466 -151.277 303.169C-89.574 364.872 10.4661 364.872 72.1689 303.169C133.872 241.466 133.872 141.426 72.1689 79.7231Z" fill="url(#paint4_linear_17_3)" />
                        </g>
                        <g filter="url(#filter3_d_17_3)">
                            <path d="M129 126C129 119.925 133.925 115 140 115H551C557.075 115 562 119.925 562 126V355C562 361.075 557.075 366 551 366H140C133.925 366 129 361.075 129 355V126Z" fill="black" />
                        </g>
                        <path d="M129 126C129 119.925 133.925 115 140 115H551C557.075 115 562 119.925 562 126V355C562 361.075 557.075 366 551 366H140C133.925 366 129 361.075 129 355V126Z" fill="url(#paint5_linear_17_3)" />
                        <path d="M129 126C129 119.925 133.925 115 140 115H225V366H140C133.925 366 129 361.075 129 355V126Z" fill="url(#paint6_linear_17_3)" />
                        <path d="M143 165.5C143 164.572 143.369 163.682 144.025 163.025C144.682 162.369 145.572 162 146.5 162H207.5C208.428 162 209.318 162.369 209.975 163.025C210.631 163.682 211 164.572 211 165.5C211 166.428 210.631 167.318 209.975 167.975C209.318 168.631 208.428 169 207.5 169H146.5C145.572 169 144.682 168.631 144.025 167.975C143.369 167.318 143 166.428 143 165.5ZM143 185.5C143 184.572 143.369 183.682 144.025 183.025C144.682 182.369 145.572 182 146.5 182H200.5C201.428 182 202.319 182.369 202.975 183.025C203.631 183.682 204 184.572 204 185.5C204 186.428 203.631 187.318 202.975 187.975C202.319 188.631 201.428 189 200.5 189H146.5C145.572 189 144.682 188.631 144.025 187.975C143.369 187.318 143 186.428 143 185.5ZM143 205.5C143 204.572 143.369 203.681 144.025 203.025C144.682 202.369 145.572 202 146.5 202H207.5C208.428 202 209.318 202.369 209.975 203.025C210.631 203.681 211 204.572 211 205.5C211 206.428 210.631 207.319 209.975 207.975C209.318 208.631 208.428 209 207.5 209H146.5C145.572 209 144.682 208.631 144.025 207.975C143.369 207.319 143 206.428 143 205.5ZM143 225.5C143 224.572 143.369 223.681 144.025 223.025C144.682 222.369 145.572 222 146.5 222H185.5C186.428 222 187.318 222.369 187.975 223.025C188.631 223.681 189 224.572 189 225.5C189 226.428 188.631 227.318 187.975 227.975C187.318 228.631 186.428 229 185.5 229H146.5C145.572 229 144.682 228.631 144.025 227.975C143.369 227.318 143 226.428 143 225.5Z" fill="#BABBDB" />
                        <path d="M129 126C129 119.925 133.925 115 140 115H551C557.075 115 562 119.925 562 126V146H129V126Z" fill="#242742" />
                        <path d="M151.5 137C155.09 137 158 134.09 158 130.5C158 126.91 155.09 124 151.5 124C147.91 124 145 126.91 145 130.5C145 134.09 147.91 137 151.5 137Z" fill="#FF6464" />
                        <path d="M173.5 137C177.09 137 180 134.09 180 130.5C180 126.91 177.09 124 173.5 124C169.91 124 167 126.91 167 130.5C167 134.09 169.91 137 173.5 137Z" fill="#FF9255" />
                        <path d="M195.5 137C199.09 137 202 134.09 202 130.5C202 126.91 199.09 124 195.5 124C191.91 124 189 126.91 189 130.5C189 134.09 191.91 137 195.5 137Z" fill="#6BD4A8" />
                        <path d="M246 97C246 95.9391 246.421 94.9217 247.172 94.1716C247.922 93.4214 248.939 93 250 93H340C341.061 93 342.078 93.4214 342.828 94.1716C343.579 94.9217 344 95.9391 344 97V219C344 220.061 343.579 221.078 342.828 221.828C342.078 222.579 341.061 223 340 223H250C248.939 223 247.922 222.579 247.172 221.828C246.421 221.078 246 220.061 246 219V97Z" fill="white" />
                        <path d="M246 97C246 95.9391 246.421 94.9217 247.172 94.1716C247.922 93.4214 248.939 93 250 93H340C341.061 93 342.078 93.4214 342.828 94.1716C343.579 94.9217 344 95.9391 344 97V219C344 220.061 343.579 221.078 342.828 221.828C342.078 222.579 341.061 223 340 223H250C248.939 223 247.922 222.579 247.172 221.828C246.421 221.078 246 220.061 246 219V97Z" fill="white" />
                        <mask id="mask4_17_3" style="mask-type:luminance" maskUnits="userSpaceOnUse" x="246" y="93" width="98" height="130">
                            <path d="M246 97C246 95.9391 246.421 94.9217 247.172 94.1716C247.922 93.4214 248.939 93 250 93H340C341.061 93 342.078 93.4214 342.828 94.1716C343.579 94.9217 344 95.9391 344 97V219C344 220.061 343.579 221.078 342.828 221.828C342.078 222.579 341.061 223 340 223H250C248.939 223 247.922 222.579 247.172 221.828C246.421 221.078 246 220.061 246 219V97Z" fill="white" />
                        </mask>
                        <g mask="url(#mask4_17_3)">
                            <path d="M354.12 121.878C354.399 122.156 354.62 122.487 354.771 122.851C354.922 123.215 355 123.605 355 123.999C355 124.393 354.923 124.783 354.772 125.147C354.621 125.511 354.401 125.842 354.122 126.121L328.847 151.41C324.499 155.761 317.447 155.761 313.098 151.41C312.621 150.933 312.056 150.555 311.433 150.297C310.81 150.039 310.142 149.906 309.468 149.906C308.794 149.906 308.126 150.039 307.503 150.297C306.88 150.555 306.315 150.933 305.838 151.41L288.406 168.853C287.601 169.658 286.645 170.297 285.593 170.733C284.541 171.169 283.414 171.394 282.275 171.394C281.136 171.394 280.009 171.169 278.957 170.733C277.905 170.297 276.949 169.658 276.144 168.853C275.896 168.605 275.602 168.408 275.278 168.274C274.955 168.14 274.607 168.071 274.257 168.071C273.907 168.071 273.56 168.14 273.236 168.274C272.912 168.408 272.618 168.605 272.37 168.853L240.122 201.121C239.559 201.684 238.796 202 238.001 202C237.205 202 236.442 201.685 235.879 201.122C235.316 200.559 235 199.796 235 199.001C235 198.205 235.315 197.442 235.878 196.879L268.126 164.612C268.931 163.807 269.887 163.168 270.939 162.732C271.991 162.296 273.118 162.071 274.257 162.071C275.396 162.071 276.523 162.296 277.575 162.732C278.627 163.168 279.583 163.807 280.388 164.612C280.636 164.86 280.93 165.056 281.254 165.191C281.578 165.325 281.925 165.394 282.275 165.394C282.625 165.394 282.973 165.325 283.296 165.191C283.62 165.056 283.914 164.86 284.162 164.612L301.594 147.17C305.942 142.82 312.994 142.82 317.342 147.17C317.819 147.647 318.384 148.025 319.007 148.283C319.63 148.541 320.298 148.674 320.972 148.674C321.646 148.674 322.314 148.541 322.937 148.283C323.56 148.025 324.125 147.647 324.602 147.17L349.878 121.88C350.156 121.601 350.487 121.38 350.851 121.229C351.215 121.078 351.605 121 351.999 121C352.393 121 352.783 121.077 353.147 121.228C353.511 121.379 353.841 121.599 354.12 121.878Z" fill="url(#paint7_linear_17_3)" />
                        </g>
                        <path d="M295 243C295 241.939 295.421 240.922 296.172 240.172C296.922 239.421 297.939 239 299 239H419C420.061 239 421.078 239.421 421.828 240.172C422.579 240.922 423 241.939 423 243V387C423 388.061 422.579 389.078 421.828 389.828C421.078 390.579 420.061 391 419 391H299C297.939 391 296.922 390.579 296.172 389.828C295.421 389.078 295 388.061 295 387V243Z" fill="white" />
                        <path fill-rule="evenodd" clip-rule="evenodd" d="M359.5 347C377.45 347 392 332.45 392 314.5C392 296.55 377.45 282 359.5 282C341.55 282 327 296.55 327 314.5C327 332.45 341.55 347 359.5 347ZM359.5 361C385.181 361 406 340.181 406 314.5C406 288.819 385.181 268 359.5 268C333.819 268 313 288.819 313 314.5C313 340.181 333.819 361 359.5 361Z" fill="url(#paint8_linear_17_3)" />
                        <path d="M342.61 309.72C342.61 311.99 343.199 313.787 344.376 315.11C345.553 316.423 347.156 317.079 349.188 317.079C351.074 317.079 352.548 316.407 353.61 315.063C354.683 313.719 355.22 312.043 355.22 310.032H354.048C354.048 311.178 353.73 312.089 353.094 312.766C352.459 313.443 351.667 313.782 350.719 313.782C349.709 313.782 348.959 313.443 348.469 312.766C347.979 312.079 347.735 311.074 347.735 309.751C347.735 308.241 347.98 307.157 348.469 306.501C348.969 305.834 349.709 305.501 350.689 305.501C351.74 305.501 352.558 305.933 353.141 306.798C353.725 307.662 354.016 309.209 354.016 311.438L354.156 312.063C354.156 315.365 353.433 317.709 351.985 319.094C350.537 320.48 348.49 321.167 345.845 321.157H345.141V325.126H345.954C350.204 325.084 353.449 323.933 355.688 321.673C357.938 319.402 359.063 316.344 359.063 312.501V311.688C359.063 308.23 358.287 305.73 356.735 304.188C355.183 302.636 353.178 301.86 350.719 301.86C348.251 301.86 346.282 302.574 344.813 304C343.344 305.428 342.61 307.334 342.61 309.72ZM369.923 325H374.751V302.25H370.235L360.125 316.813V320.251H377.266V316.36H372.329L371.516 316.438H365.016L369.844 308.876H370.001V318.469L369.922 319.016V325.001L369.923 325Z" fill="#242742" />
                    </g>
                </g>
                <defs>
                    <filter id="filter0_d_17_3" x="-224" y="203" width="497" height="353" filterUnits="userSpaceOnUse" color-interpolation-filters="sRGB">
                        <feFlood flood-opacity="0" result="BackgroundImageFix" />
                        <feColorMatrix in="SourceAlpha" type="matrix" values="0 0 0 0 0 0 0 0 0 0 0 0 0 0 0 0 0 0 127 0" result="hardAlpha" />
                        <feOffset dy="24" />
                        <feGaussianBlur stdDeviation="16" />
                        <feColorMatrix type="matrix" values="0 0 0 0 0 0 0 0 0 0 0 0 0 0 0 0 0 0 0.1 0" />
                        <feBlend mode="normal" in2="BackgroundImageFix" result="effect1_dropShadow_17_3" />
                        <feBlend mode="normal" in="SourceGraphic" in2="effect1_dropShadow_17_3" result="shape" />
                    </filter>
                    <filter id="filter1_d_17_3" x="-208" y="218" width="465" height="323" filterUnits="userSpaceOnUse" color-interpolation-filters="sRGB">
                        <feFlood flood-opacity="0" result="BackgroundImageFix" />
                        <feColorMatrix in="SourceAlpha" type="matrix" values="0 0 0 0 0 0 0 0 0 0 0 0 0 0 0 0 0 0 127 0" result="hardAlpha" />
                        <feOffset dy="24" />
                        <feGaussianBlur stdDeviation="16" />
                        <feColorMatrix type="matrix" values="0 0 0 0 0 0 0 0 0 0 0 0 0 0 0 0 0 0 0.1 0" />
                        <feBlend mode="normal" in2="BackgroundImageFix" result="effect1_dropShadow_17_3" />
                        <feBlend mode="normal" in="SourceGraphic" in2="effect1_dropShadow_17_3" result="shape" />
                    </filter>
                    <filter id="filter2_d_17_3" x="-208" y="218" width="465" height="323" filterUnits="userSpaceOnUse" color-interpolation-filters="sRGB">
                        <feFlood flood-opacity="0" result="BackgroundImageFix" />
                        <feColorMatrix in="SourceAlpha" type="matrix" values="0 0 0 0 0 0 0 0 0 0 0 0 0 0 0 0 0 0 127 0" result="hardAlpha" />
                        <feOffset dy="24" />
                        <feGaussianBlur stdDeviation="16" />
                        <feColorMatrix type="matrix" values="0 0 0 0 0 0 0 0 0 0 0 0 0 0 0 0 0 0 0.1 0" />
                        <feBlend mode="normal" in2="BackgroundImageFix" result="effect1_dropShadow_17_3" />
                        <feBlend mode="normal" in="SourceGraphic" in2="effect1_dropShadow_17_3" result="shape" />
                    </filter>
                    <filter id="filter3_d_17_3" x="97" y="107" width="497" height="315" filterUnits="userSpaceOnUse" color-interpolation-filters="sRGB">
                        <feFlood flood-opacity="0" result="BackgroundImageFix" />
                        <feColorMatrix in="SourceAlpha" type="matrix" values="0 0 0 0 0 0 0 0 0 0 0 0 0 0 0 0 0 0 127 0" result="hardAlpha" />
                        <feOffset dy="24" />
                        <feGaussianBlur stdDeviation="16" />
                        <feColorMatrix type="matrix" values="0 0 0 0 0 0 0 0 0 0 0 0 0 0 0 0 0 0 0.1 0" />
                        <feBlend mode="normal" in2="BackgroundImageFix" result="effect1_dropShadow_17_3" />
                        <feBlend mode="normal" in="SourceGraphic" in2="effect1_dropShadow_17_3" result="shape" />
                    </filter>
                    <linearGradient id="paint0_linear_17_3" x1="29100" y1="0.000606742" x2="-4082.86" y2="49193.5" gradientUnits="userSpaceOnUse">
                        <stop stop-color="#FF6A3A" />
                        <stop offset="1" stop-color="#FF527B" />
                    </linearGradient>
                    <linearGradient id="paint1_linear_17_3" x1="8773.92" y1="7606.72" x2="32004.3" y2="27443" gradientUnits="userSpaceOnUse">
                        <stop stop-color="#FF3E83" />
                        <stop offset="1" stop-color="#FF9F2E" />
                    </linearGradient>
                    <linearGradient id="paint2_linear_17_3" x1="8773.92" y1="7606.72" x2="32004.3" y2="27443" gradientUnits="userSpaceOnUse">
                        <stop stop-color="#FF3E83" />
                        <stop offset="1" stop-color="#FF9F2E" />
                    </linearGradient>
                    <linearGradient id="paint3_linear_17_3" x1="15856" y1="312" x2="15856" y2="31912" gradientUnits="userSpaceOnUse">
                        <stop stop-color="#FFB443" />
                        <stop offset="1" stop-color="#FF5B64" stop-opacity="0" />
                    </linearGradient>
                    <linearGradient id="paint4_linear_17_3" x1="-11211.8" y1="-10757.4" x2="11132.7" y2="-33102" gradientUnits="userSpaceOnUse">
                        <stop stop-color="#FFB443" />
                        <stop offset="1" stop-color="#FF5B64" stop-opacity="0" />
                    </linearGradient>
                    <linearGradient id="paint5_linear_17_3" x1="21779" y1="115" x2="21779" y2="25215" gradientUnits="userSpaceOnUse">
                        <stop stop-color="#F8F8F8" />
                        <stop offset="1" stop-color="#EEEEEE" />
                    </linearGradient>
                    <linearGradient id="paint6_linear_17_3" x1="4929" y1="115" x2="4929" y2="25215" gradientUnits="userSpaceOnUse">
                        <stop stop-color="#CACBE8" />
                        <stop offset="1" stop-color="#CACBE8" />
                    </linearGradient>
                    <linearGradient id="paint7_linear_17_3" x1="11969.9" y1="2303.47" x2="3241.17" y2="8755.43" gradientUnits="userSpaceOnUse">
                        <stop stop-color="#FF9049" />
                        <stop offset="1" stop-color="#FF5E5E" />
                    </linearGradient>
                    <linearGradient id="paint8_linear_17_3" x1="4963" y1="268" x2="4963" y2="9568" gradientUnits="userSpaceOnUse">
                        <stop stop-color="#FF6A3D" />
                        <stop offset="1" stop-color="#FF5B66" />
                    </linearGradient>
                    <clipPath id="clip0_17_3">
                        <rect width="400" height="593" fill="white" />
                    </clipPath>
                </defs>
            </svg>